<svg width="312" height="48" viewBox="0 0 312 48" fill="none" xmlns="http://www.w3.org/2000/svg">
<g filter="url(#filter0_d_2_2)">
<mask id="path-1-outside-1_2_2" maskUnits="userSpaceOnUse" x="2" y="0" width="308" height="42" fill="black">
<rect fill="white" x="2" width="308" height="42"/>
<path d="M23.888 30.312H16.4V39H4.88V3H23.024C31.28 3 35.408 7.432 35.408 16.296C35.408 18.248 35.216 20.072 34.832 21.768C34.448 23.464 33.792 24.952 32.864 26.232C31.968 27.48 30.784 28.472 29.312 29.208C27.872 29.944 26.064 30.312 23.888 30.312ZM19.04 12.216H16.4V21.096H19.04C20.448 21.096 21.456 20.952 22.064 20.664C22.704 20.376 23.024 19.704 23.024 18.648V14.616C23.024 13.592 22.704 12.936 22.064 12.648C21.456 12.36 20.448 12.216 19.04 12.216ZM64.3044 17.064V25.416H52.7844V29.784H66.8964V39H41.2644V3H66.6084L65.1684 12.216H52.7844V17.064H64.3044ZM99.812 3V12.216H91.46V39H79.94V12.216H71.588V3H99.812Z"/>
<path d="M120.712 38.376L122.344 28.872C125.864 29.736 129.048 30.168 131.896 30.168C133.336 30.168 134.6 30.152 135.688 30.12C136.808 30.056 137.8 29.96 138.664 29.832V26.952L133.48 26.52C131.144 26.296 129.192 25.912 127.624 25.368C126.056 24.824 124.792 24.088 123.832 23.16C122.904 22.2 122.232 21.064 121.816 19.752C121.432 18.408 121.24 16.84 121.24 15.048C121.24 12.584 121.496 10.536 122.008 8.904C122.52 7.24 123.336 5.912 124.456 4.92C125.576 3.896 127.016 3.176 128.776 2.76C130.568 2.344 132.744 2.136 135.304 2.136C140.392 2.136 145 2.616 149.128 3.576L147.688 12.792C144.104 12.216 141.24 11.928 139.096 11.928C136.952 11.928 135.128 12.024 133.624 12.216V15.048L137.752 15.432C140.28 15.688 142.392 16.12 144.088 16.728C145.784 17.304 147.144 18.072 148.168 19.032C149.224 19.992 149.96 21.128 150.376 22.44C150.824 23.752 151.048 25.256 151.048 26.952C151.048 29.384 150.728 31.432 150.088 33.096C149.448 34.76 148.68 36.024 147.784 36.888C147.048 37.592 146.136 38.152 145.048 38.568C143.96 38.952 142.808 39.24 141.592 39.432C140.376 39.624 139.144 39.736 137.896 39.768C136.68 39.832 135.576 39.864 134.584 39.864C132.088 39.864 129.688 39.736 127.384 39.48C125.08 39.224 122.856 38.856 120.712 38.376ZM169.066 21.528L168.394 39H156.346L158.554 3H173.578L178.042 21.336H178.474L182.938 3H198.01L200.17 39H188.122L187.45 21.528H187.066L182.65 39H173.866L169.402 21.528H169.066ZM216.762 33.288L215.466 39H203.322L212.634 3H230.442L239.754 39H227.61L226.266 33.288H216.762ZM221.85 14.04H221.226L218.874 24.12H224.154L221.85 14.04ZM269.535 27L275.775 39H263.103L258.399 28.296H255.903V39H244.383V3H262.527C270.783 3 274.911 7.208 274.911 15.624C274.911 21.384 273.119 25.176 269.535 27ZM258.543 12.216H255.903V19.416H258.543C259.951 19.416 260.959 19.272 261.567 18.984C262.207 18.696 262.527 18.04 262.527 17.016V14.616C262.527 13.592 262.207 12.936 261.567 12.648C260.959 12.36 259.951 12.216 258.543 12.216ZM307.853 3V12.216H299.501V39H287.981V12.216H279.629V3H307.853Z"/>
</mask>
<path d="M23.888 30.312H16.4V39H4.88V3H23.024C31.28 3 35.408 7.432 35.408 16.296C35.408 18.248 35.216 20.072 34.832 21.768C34.448 23.464 33.792 24.952 32.864 26.232C31.968 27.48 30.784 28.472 29.312 29.208C27.872 29.944 26.064 30.312 23.888 30.312ZM19.04 12.216H16.4V21.096H19.04C20.448 21.096 21.456 20.952 22.064 20.664C22.704 20.376 23.024 19.704 23.024 18.648V14.616C23.024 13.592 22.704 12.936 22.064 12.648C21.456 12.36 20.448 12.216 19.04 12.216ZM64.3044 17.064V25.416H52.7844V29.784H66.8964V39H41.2644V3H66.6084L65.1684 12.216H52.7844V17.064H64.3044ZM99.812 3V12.216H91.46V39H79.94V12.216H71.588V3H99.812Z" fill="#D97C3A"/>
<path d="M120.712 38.376L122.344 28.872C125.864 29.736 129.048 30.168 131.896 30.168C133.336 30.168 134.6 30.152 135.688 30.12C136.808 30.056 137.8 29.96 138.664 29.832V26.952L133.48 26.52C131.144 26.296 129.192 25.912 127.624 25.368C126.056 24.824 124.792 24.088 123.832 23.16C122.904 22.2 122.232 21.064 121.816 19.752C121.432 18.408 121.24 16.84 121.24 15.048C121.24 12.584 121.496 10.536 122.008 8.904C122.52 7.24 123.336 5.912 124.456 4.92C125.576 3.896 127.016 3.176 128.776 2.76C130.568 2.344 132.744 2.136 135.304 2.136C140.392 2.136 145 2.616 149.128 3.576L147.688 12.792C144.104 12.216 141.24 11.928 139.096 11.928C136.952 11.928 135.128 12.024 133.624 12.216V15.048L137.752 15.432C140.28 15.688 142.392 16.12 144.088 16.728C145.784 17.304 147.144 18.072 148.168 19.032C149.224 19.992 149.96 21.128 150.376 22.44C150.824 23.752 151.048 25.256 151.048 26.952C151.048 29.384 150.728 31.432 150.088 33.096C149.448 34.76 148.68 36.024 147.784 36.888C147.048 37.592 146.136 38.152 145.048 38.568C143.96 38.952 142.808 39.24 141.592 39.432C140.376 39.624 139.144 39.736 137.896 39.768C136.68 39.832 135.576 39.864 134.584 39.864C132.088 39.864 129.688 39.736 127.384 39.48C125.08 39.224 122.856 38.856 120.712 38.376ZM169.066 21.528L168.394 39H156.346L158.554 3H173.578L178.042 21.336H178.474L182.938 3H198.01L200.17 39H188.122L187.45 21.528H187.066L182.65 39H173.866L169.402 21.528H169.066ZM216.762 33.288L215.466 39H203.322L212.634 3H230.442L239.754 39H227.61L226.266 33.288H216.762ZM221.85 14.04H221.226L218.874 24.12H224.154L221.85 14.04ZM269.535 27L275.775 39H263.103L258.399 28.296H255.903V39H244.383V3H262.527C270.783 3 274.911 7.208 274.911 15.624C274.911 21.384 273.119 25.176 269.535 27ZM258.543 12.216H255.903V19.416H258.543C259.951 19.416 260.959 19.272 261.567 18.984C262.207 18.696 262.527 18.04 262.527 17.016V14.616C262.527 13.592 262.207 12.936 261.567 12.648C260.959 12.36 259.951 12.216 258.543 12.216ZM307.853 3V12.216H299.501V39H287.981V12.216H279.629V3H307.853Z" fill="#5A3E2B"/>
<path d="M16.4 30.312V28.312H14.4V30.312H16.4ZM16.4 39V41H18.4V39H16.4ZM4.88 39H2.88V41H4.88V39ZM4.88 3V0.999997H2.88V3H4.88ZM34.832 21.768L32.8814 21.3263L32.8814 21.3263L34.832 21.768ZM32.864 26.232L31.2448 25.0581L31.2394 25.0656L32.864 26.232ZM29.312 29.208L28.4176 27.4191L28.4097 27.4231L28.4018 27.4271L29.312 29.208ZM16.4 12.216V10.216H14.4V12.216H16.4ZM16.4 21.096H14.4V23.096H16.4V21.096ZM22.064 20.664L21.2433 18.8402L21.2255 18.8482L21.2078 18.8565L22.064 20.664ZM22.064 12.648L21.2078 14.4555L21.2255 14.4638L21.2433 14.4718L22.064 12.648ZM23.888 28.312H16.4V32.312H23.888V28.312ZM14.4 30.312V39H18.4V30.312H14.4ZM16.4 37H4.88V41H16.4V37ZM6.88 39V3H2.88V39H6.88ZM4.88 5H23.024V0.999997H4.88V5ZM23.024 5C26.8059 5 29.2849 6.0084 30.8485 7.68713C32.437 9.39264 33.408 12.1384 33.408 16.296H37.408C37.408 11.5896 36.315 7.68736 33.7755 4.96087C31.2111 2.20759 27.4982 0.999997 23.024 0.999997V5ZM33.408 16.296C33.408 18.1172 33.2288 19.7917 32.8814 21.3263L36.7826 22.2097C37.2032 20.3523 37.408 18.3788 37.408 16.296H33.408ZM32.8814 21.3263C32.5511 22.7849 31.9987 24.0182 31.2448 25.0581L34.4832 27.4059C35.5853 25.8858 36.3449 24.1431 36.7826 22.2096L32.8814 21.3263ZM31.2394 25.0656C30.546 26.0313 29.6205 26.8177 28.4176 27.4191L30.2064 30.9969C31.9475 30.1263 33.39 28.9287 34.4886 27.3984L31.2394 25.0656ZM28.4018 27.4271C27.3238 27.9781 25.8519 28.312 23.888 28.312V32.312C26.2761 32.312 28.4202 31.9099 30.2222 30.9889L28.4018 27.4271ZM19.04 10.216H16.4V14.216H19.04V10.216ZM14.4 12.216V21.096H18.4V12.216H14.4ZM16.4 23.096H19.04V19.096H16.4V23.096ZM19.04 23.096C20.4894 23.096 21.8834 22.9626 22.9202 22.4715L21.2078 18.8565C21.0286 18.9414 20.4066 19.096 19.04 19.096V23.096ZM22.8847 22.4878C24.579 21.7254 25.024 20.0396 25.024 18.648H21.024C21.024 18.8134 21.0113 18.9291 20.9974 19.0038C20.9837 19.0782 20.9712 19.099 20.9783 19.0841C20.9868 19.0662 21.0139 19.0177 21.0698 18.9618C21.127 18.9046 21.1899 18.8642 21.2433 18.8402L22.8847 22.4878ZM25.024 18.648V14.616H21.024V18.648H25.024ZM25.024 14.616C25.024 13.2209 24.5572 11.5768 22.8847 10.8242L21.2433 14.4718C21.1967 14.4509 21.1376 14.414 21.0817 14.359C21.0266 14.3049 20.9977 14.2558 20.9865 14.2328C20.9768 14.2129 20.987 14.2264 20.9993 14.2912C21.0118 14.3565 21.024 14.4618 21.024 14.616H25.024ZM22.9202 10.8405C21.8834 10.3494 20.4894 10.216 19.04 10.216V14.216C20.4066 14.216 21.0286 14.3706 21.2078 14.4555L22.9202 10.8405ZM64.3044 17.064H66.3044V15.064H64.3044V17.064ZM64.3044 25.416V27.416H66.3044V25.416H64.3044ZM52.7844 25.416V23.416H50.7844V25.416H52.7844ZM52.7844 29.784H50.7844V31.784H52.7844V29.784ZM66.8964 29.784H68.8964V27.784H66.8964V29.784ZM66.8964 39V41H68.8964V39H66.8964ZM41.2644 39H39.2644V41H41.2644V39ZM41.2644 3V0.999997H39.2644V3H41.2644ZM66.6084 3L68.5844 3.30875L68.9451 0.999997H66.6084V3ZM65.1684 12.216V14.216H66.8801L67.1444 12.5248L65.1684 12.216ZM52.7844 12.216V10.216H50.7844V12.216H52.7844ZM52.7844 17.064H50.7844V19.064H52.7844V17.064ZM62.3044 17.064V25.416H66.3044V17.064H62.3044ZM64.3044 23.416H52.7844V27.416H64.3044V23.416ZM50.7844 25.416V29.784H54.7844V25.416H50.7844ZM52.7844 31.784H66.8964V27.784H52.7844V31.784ZM64.8964 29.784V39H68.8964V29.784H64.8964ZM66.8964 37H41.2644V41H66.8964V37ZM43.2644 39V3H39.2644V39H43.2644ZM41.2644 5H66.6084V0.999997H41.2644V5ZM64.6324 2.69124L63.1924 11.9072L67.1444 12.5248L68.5844 3.30875L64.6324 2.69124ZM65.1684 10.216H52.7844V14.216H65.1684V10.216ZM50.7844 12.216V17.064H54.7844V12.216H50.7844ZM52.7844 19.064H64.3044V15.064H52.7844V19.064ZM99.812 3H101.812V0.999997H99.812V3ZM99.812 12.216V14.216H101.812V12.216H99.812ZM91.46 12.216V10.216H89.46V12.216H91.46ZM91.46 39V41H93.46V39H91.46ZM79.94 39H77.94V41H79.94V39ZM79.94 12.216H81.94V10.216H79.94V12.216ZM71.588 12.216H69.588V14.216H71.588V12.216ZM71.588 3V0.999997H69.588V3H71.588ZM97.812 3V12.216H101.812V3H97.812ZM99.812 10.216H91.46V14.216H99.812V10.216ZM89.46 12.216V39H93.46V12.216H89.46ZM91.46 37H79.94V41H91.46V37ZM81.94 39V12.216H77.94V39H81.94ZM79.94 10.216H71.588V14.216H79.94V10.216ZM73.588 12.216V3H69.588V12.216H73.588ZM71.588 5H99.812V0.999997H71.588V5ZM120.712 38.376L118.741 38.0375L118.419 39.9121L120.275 40.3277L120.712 38.376ZM122.344 28.872L122.821 26.9297L120.736 26.418L120.373 28.5335L122.344 28.872ZM135.688 30.12L135.747 32.1191L135.774 32.1183L135.802 32.1167L135.688 30.12ZM138.664 29.832L138.957 31.8104L140.664 31.5575V29.832H138.664ZM138.664 26.952H140.664V25.1117L138.83 24.9589L138.664 26.952ZM133.48 26.52L133.289 28.5109L133.301 28.5121L133.314 28.5131L133.48 26.52ZM127.624 25.368L126.968 27.2575L126.968 27.2575L127.624 25.368ZM123.832 23.16L122.394 24.55L122.417 24.5744L122.442 24.598L123.832 23.16ZM121.816 19.752L119.893 20.3014L119.901 20.3291L119.909 20.3565L121.816 19.752ZM122.008 8.904L123.916 9.50269L123.919 9.49217L122.008 8.904ZM124.456 4.92L125.782 6.41717L125.794 6.40671L125.805 6.39606L124.456 4.92ZM128.776 2.76L128.324 0.811787L128.316 0.813628L128.776 2.76ZM149.128 3.576L151.104 3.88475L151.391 2.04888L149.581 1.62798L149.128 3.576ZM147.688 12.792L147.371 14.7667L149.354 15.0854L149.664 13.1008L147.688 12.792ZM133.624 12.216L133.371 10.2321L131.624 10.4551V12.216H133.624ZM133.624 15.048H131.624V16.8706L133.439 17.0394L133.624 15.048ZM137.752 15.432L137.953 13.4422L137.945 13.4414L137.937 13.4406L137.752 15.432ZM144.088 16.728L143.413 18.6107L143.429 18.6164L143.445 18.6218L144.088 16.728ZM148.168 19.032L146.8 20.4911L146.811 20.5016L146.823 20.5119L148.168 19.032ZM150.376 22.44L148.469 23.0445L148.476 23.0655L148.483 23.0863L150.376 22.44ZM150.088 33.096L148.221 32.378L148.221 32.378L150.088 33.096ZM147.784 36.888L149.166 38.3333L149.172 38.3277L147.784 36.888ZM145.048 38.568L145.714 40.454L145.738 40.4454L145.762 40.4361L145.048 38.568ZM141.592 39.432L141.904 41.4075L141.904 41.4075L141.592 39.432ZM137.896 39.768L137.845 37.7687L137.818 37.7693L137.791 37.7708L137.896 39.768ZM127.384 39.48L127.605 37.4922L127.384 39.48ZM122.683 38.7145L124.315 29.2105L120.373 28.5335L118.741 38.0375L122.683 38.7145ZM121.867 30.8143C125.503 31.7068 128.851 32.168 131.896 32.168V28.168C129.245 28.168 126.225 27.7652 122.821 26.9297L121.867 30.8143ZM131.896 32.168C133.35 32.168 134.634 32.1519 135.747 32.1191L135.629 28.1209C134.566 28.1521 133.322 28.168 131.896 28.168V32.168ZM135.802 32.1167C136.966 32.0502 138.02 31.9493 138.957 31.8104L138.371 27.8536C137.58 27.9707 136.65 28.0618 135.574 28.1233L135.802 32.1167ZM140.664 29.832V26.952H136.664V29.832H140.664ZM138.83 24.9589L133.646 24.5269L133.314 28.5131L138.498 28.9451L138.83 24.9589ZM133.671 24.5291C131.434 24.3146 129.649 23.9538 128.279 23.4785L126.968 27.2575C128.734 27.8702 130.854 28.2774 133.289 28.5109L133.671 24.5291ZM128.279 23.4785C126.921 23.0072 125.928 22.405 125.222 21.722L122.442 24.598C123.655 25.771 125.191 26.6408 126.968 27.2575L128.279 23.4785ZM125.27 21.77C124.563 21.0391 124.048 20.1744 123.722 19.1475L119.909 20.3565C120.416 21.9536 121.244 23.3609 122.394 24.55L125.27 21.77ZM123.739 19.2026C123.418 18.0793 123.24 16.7036 123.24 15.048H119.24C119.24 16.9764 119.446 18.7367 119.893 20.3014L123.739 19.2026ZM123.24 15.048C123.24 12.7058 123.485 10.8762 123.916 9.50268L120.1 8.30532C119.506 10.1958 119.24 12.4622 119.24 15.048H123.24ZM123.919 9.49217C124.341 8.12085 124.979 7.12816 125.782 6.41717L123.13 3.42282C121.693 4.69584 120.698 6.35915 120.096 8.31583L123.919 9.49217ZM125.805 6.39606C126.63 5.64247 127.744 5.05899 129.236 4.70637L128.316 0.813628C126.288 1.293 124.522 2.14952 123.106 3.44394L125.805 6.39606ZM129.228 4.70819C130.827 4.33707 132.842 4.136 135.304 4.136V0.136C132.646 0.136 130.309 0.35093 128.324 0.811803L129.228 4.70819ZM135.304 4.136C140.269 4.136 144.721 4.60463 148.675 5.52401L149.581 1.62798C145.278 0.627373 140.515 0.136 135.304 0.136V4.136ZM147.152 3.26724L145.712 12.4832L149.664 13.1008L151.104 3.88475L147.152 3.26724ZM148.005 10.8173C144.378 10.2343 141.394 9.928 139.096 9.928V13.928C141.086 13.928 143.83 14.1977 147.371 14.7667L148.005 10.8173ZM139.096 9.928C136.899 9.928 134.985 10.026 133.371 10.2321L133.877 14.1999C135.271 14.022 137.005 13.928 139.096 13.928V9.928ZM131.624 12.216V15.048H135.624V12.216H131.624ZM133.439 17.0394L137.567 17.4234L137.937 13.4406L133.809 13.0566L133.439 17.0394ZM137.55 17.4218C139.977 17.6676 141.918 18.0747 143.413 18.6107L144.763 14.8453C142.866 14.1653 140.583 13.7084 137.953 13.4422L137.55 17.4218ZM143.445 18.6218C144.943 19.1305 146.033 19.7719 146.8 20.4911L149.536 17.5729C148.255 16.3721 146.625 15.4775 144.731 14.8342L143.445 18.6218ZM146.823 20.5119C147.628 21.2438 148.164 22.0814 148.469 23.0445L152.282 21.8355C151.756 20.1746 150.82 18.7402 149.513 17.5521L146.823 20.5119ZM148.483 23.0863C148.846 24.1497 149.048 25.4285 149.048 26.952H153.048C153.048 25.0835 152.801 23.3543 152.269 21.7937L148.483 23.0863ZM149.048 26.952C149.048 29.222 148.747 31.0099 148.221 32.378L151.955 33.814C152.708 31.8541 153.048 29.546 153.048 26.952H149.048ZM148.221 32.378C147.644 33.8787 147.011 34.8551 146.396 35.4483L149.172 38.3277C150.349 37.1929 151.252 35.6413 151.955 33.814L148.221 32.378ZM146.401 35.4427C145.883 35.9382 145.208 36.3654 144.334 36.6999L145.762 40.4361C147.063 39.9386 148.212 39.2458 149.166 38.3333L146.401 35.4427ZM144.382 36.682C143.417 37.0229 142.384 37.2822 141.28 37.4565L141.904 41.4075C143.232 41.1978 144.503 40.8811 145.714 40.454L144.382 36.682ZM141.28 37.4565C140.151 37.6347 139.007 37.7389 137.845 37.7687L137.947 41.7673C139.281 41.7331 140.6 41.6133 141.904 41.4075L141.28 37.4565ZM137.791 37.7708C136.602 37.8333 135.534 37.864 134.584 37.864V41.864C135.618 41.864 136.758 41.8307 138.001 41.7652L137.791 37.7708ZM134.584 37.864C132.156 37.864 129.83 37.7395 127.605 37.4922L127.163 41.4678C129.546 41.7325 132.02 41.864 134.584 41.864V37.864ZM127.605 37.4922C125.369 37.2439 123.218 36.8875 121.149 36.4243L120.275 40.3277C122.494 40.8245 124.79 41.2041 127.163 41.4678L127.605 37.4922ZM169.066 21.528V19.528H167.142L167.068 21.4511L169.066 21.528ZM168.394 39V41H170.319L170.393 39.0769L168.394 39ZM156.346 39L154.35 38.8776L154.22 41H156.346V39ZM158.554 3V0.999997H156.673L156.558 2.87756L158.554 3ZM173.578 3L175.521 2.5269L175.15 0.999997H173.578V3ZM178.042 21.336L176.099 21.8091L176.471 23.336H178.042V21.336ZM178.474 21.336V23.336H180.046L180.417 21.8091L178.474 21.336ZM182.938 3V0.999997H181.367L180.995 2.5269L182.938 3ZM198.01 3L200.007 2.88021L199.894 0.999997H198.01V3ZM200.17 39V41H202.294L202.167 38.8802L200.17 39ZM188.122 39L186.124 39.0769L186.198 41H188.122V39ZM187.45 21.528L189.449 21.4511L189.375 19.528H187.45V21.528ZM187.066 21.528V19.528H185.509L185.127 21.0379L187.066 21.528ZM182.65 39V41H184.208L184.589 39.4901L182.65 39ZM173.866 39L171.928 39.4951L172.313 41H173.866V39ZM169.402 21.528L171.34 21.0329L170.956 19.528H169.402V21.528ZM167.068 21.4511L166.396 38.9231L170.393 39.0769L171.065 21.6049L167.068 21.4511ZM168.394 37H156.346V41H168.394V37ZM158.342 39.1224L160.55 3.12243L156.558 2.87756L154.35 38.8776L158.342 39.1224ZM158.554 5H173.578V0.999997H158.554V5ZM171.635 3.47309L176.099 21.8091L179.985 20.8629L175.521 2.5269L171.635 3.47309ZM178.042 23.336H178.474V19.336H178.042V23.336ZM180.417 21.8091L184.881 3.47309L180.995 2.5269L176.531 20.8629L180.417 21.8091ZM182.938 5H198.01V0.999997H182.938V5ZM196.014 3.11978L198.174 39.1198L202.167 38.8802L200.007 2.88021L196.014 3.11978ZM200.17 37H188.122V41H200.17V37ZM190.121 38.9231L189.449 21.4511L185.452 21.6049L186.124 39.0769L190.121 38.9231ZM187.45 19.528H187.066V23.528H187.45V19.528ZM185.127 21.0379L180.711 38.5099L184.589 39.4901L189.005 22.0181L185.127 21.0379ZM182.65 37H173.866V41H182.65V37ZM175.804 38.5049L171.34 21.0329L167.464 22.0231L171.928 39.4951L175.804 38.5049ZM169.402 19.528H169.066V23.528H169.402V19.528ZM216.762 33.288V31.288H215.165L214.811 32.8455L216.762 33.288ZM215.466 39V41H217.063L217.416 39.4425L215.466 39ZM203.322 39L201.385 38.4992L200.739 41H203.322V39ZM212.634 3V0.999997H211.085L210.697 2.49915L212.634 3ZM230.442 3L232.378 2.49915L231.99 0.999997H230.442V3ZM239.754 39V41H242.337L241.69 38.4992L239.754 39ZM227.61 39L225.663 39.4581L226.026 41H227.61V39ZM226.266 33.288L228.213 32.8299L227.85 31.288H226.266V33.288ZM221.85 14.04L223.799 13.5943L223.444 12.04H221.85V14.04ZM221.226 14.04V12.04H219.639L219.278 13.5855L221.226 14.04ZM218.874 24.12L216.926 23.6655L216.353 26.12H218.874V24.12ZM224.154 24.12V26.12H226.662L226.103 23.6744L224.154 24.12ZM214.811 32.8455L213.515 38.5575L217.416 39.4425L218.712 33.7305L214.811 32.8455ZM215.466 37H203.322V41H215.466V37ZM205.258 39.5008L214.57 3.50085L210.697 2.49915L201.385 38.4992L205.258 39.5008ZM212.634 5H230.442V0.999997H212.634V5ZM228.505 3.50085L237.817 39.5008L241.69 38.4992L232.378 2.49915L228.505 3.50085ZM239.754 37H227.61V41H239.754V37ZM229.557 38.5419L228.213 32.8299L224.319 33.7461L225.663 39.4581L229.557 38.5419ZM226.266 31.288H216.762V35.288H226.266V31.288ZM221.85 12.04H221.226V16.04H221.85V12.04ZM219.278 13.5855L216.926 23.6655L220.821 24.5745L223.173 14.4945L219.278 13.5855ZM218.874 26.12H224.154V22.12H218.874V26.12ZM226.103 23.6744L223.799 13.5943L219.9 14.4856L222.204 24.5656L226.103 23.6744ZM269.535 27L268.628 25.2176L266.83 26.1327L267.761 27.9227L269.535 27ZM275.775 39V41H279.069L277.55 38.0773L275.775 39ZM263.103 39L261.272 39.8047L261.797 41H263.103V39ZM258.399 28.296L260.23 27.4913L259.705 26.296H258.399V28.296ZM255.903 28.296V26.296H253.903V28.296H255.903ZM255.903 39V41H257.903V39H255.903ZM244.383 39H242.383V41H244.383V39ZM244.383 3V0.999997H242.383V3H244.383ZM255.903 12.216V10.216H253.903V12.216H255.903ZM255.903 19.416H253.903V21.416H255.903V19.416ZM261.567 18.984L260.746 17.1602L260.729 17.1682L260.711 17.1765L261.567 18.984ZM261.567 12.648L260.711 14.4555L260.729 14.4638L260.746 14.4718L261.567 12.648ZM267.761 27.9227L274.001 39.9227L277.55 38.0773L271.31 26.0773L267.761 27.9227ZM275.775 37H263.103V41H275.775V37ZM264.934 38.1953L260.23 27.4913L256.568 29.1007L261.272 39.8047L264.934 38.1953ZM258.399 26.296H255.903V30.296H258.399V26.296ZM253.903 28.296V39H257.903V28.296H253.903ZM255.903 37H244.383V41H255.903V37ZM246.383 39V3H242.383V39H246.383ZM244.383 5H262.527V0.999997H244.383V5ZM262.527 5C266.337 5 268.829 5.96824 270.387 7.55657C271.953 9.152 272.911 11.7147 272.911 15.624H276.911C276.911 11.1173 275.806 7.368 273.243 4.75542C270.673 2.13575 266.973 0.999997 262.527 0.999997V5ZM272.911 15.624C272.911 21.0005 271.266 23.8749 268.628 25.2176L270.442 28.7824C274.972 26.4771 276.911 21.7675 276.911 15.624H272.911ZM258.543 10.216H255.903V14.216H258.543V10.216ZM253.903 12.216V19.416H257.903V12.216H253.903ZM255.903 21.416H258.543V17.416H255.903V21.416ZM258.543 21.416C259.993 21.416 261.387 21.2826 262.423 20.7915L260.711 17.1765C260.532 17.2614 259.91 17.416 258.543 17.416V21.416ZM262.388 20.8078C264.06 20.0552 264.527 18.4111 264.527 17.016H260.527C260.527 17.1702 260.515 17.2754 260.502 17.3408C260.49 17.4056 260.48 17.4191 260.49 17.3992C260.501 17.3762 260.53 17.3271 260.585 17.273C260.641 17.218 260.7 17.1811 260.746 17.1602L262.388 20.8078ZM264.527 17.016V14.616H260.527V17.016H264.527ZM264.527 14.616C264.527 13.2209 264.06 11.5768 262.388 10.8242L260.746 14.4718C260.7 14.4509 260.641 14.414 260.585 14.359C260.53 14.3049 260.501 14.2558 260.49 14.2328C260.48 14.2129 260.49 14.2264 260.502 14.2912C260.515 14.3565 260.527 14.4618 260.527 14.616H264.527ZM262.423 10.8405C261.387 10.3494 259.993 10.216 258.543 10.216V14.216C259.91 14.216 260.532 14.3706 260.711 14.4555L262.423 10.8405ZM307.853 3H309.853V0.999997H307.853V3ZM307.853 12.216V14.216H309.853V12.216H307.853ZM299.501 12.216V10.216H297.501V12.216H299.501ZM299.501 39V41H301.501V39H299.501ZM287.981 39H285.981V41H287.981V39ZM287.981 12.216H289.981V10.216H287.981V12.216ZM279.629 12.216H277.629V14.216H279.629V12.216ZM279.629 3V0.999997H277.629V3H279.629ZM305.853 3V12.216H309.853V3H305.853ZM307.853 10.216H299.501V14.216H307.853V10.216ZM297.501 12.216V39H301.501V12.216H297.501ZM299.501 37H287.981V41H299.501V37ZM289.981 39V12.216H285.981V39H289.981ZM287.981 10.216H279.629V14.216H287.981V10.216ZM281.629 12.216V3H277.629V12.216H281.629ZM279.629 5H307.853V0.999997H279.629V5Z" fill="#F7E9D7" mask="url(#path-1-outside-1_2_2)"/>
</g>
<defs>
<filter id="filter0_d_2_2" x="0.879997" y="0.136002" width="310.973" height="47.728" filterUnits="userSpaceOnUse" color-interpolation-filters="sRGB">
<feFlood flood-opacity="0" result="BackgroundImageFix"/>
<feColorMatrix in="SourceAlpha" type="matrix" values="0 0 0 0 0 0 0 0 0 0 0 0 0 0 0 0 0 0 127 0" result="hardAlpha"/>
<feOffset dy="4"/>
<feGaussianBlur stdDeviation="1"/>
<feComposite in2="hardAlpha" operator="out"/>
<feColorMatrix type="matrix" values="0 0 0 0 0.823529 0 0 0 0 0.65098 0 0 0 0 0.47451 0 0 0 0.1 0"/>
<feBlend mode="normal" in2="BackgroundImageFix" result="effect1_dropShadow_2_2"/>
<feBlend mode="normal" in="SourceGraphic" in2="effect1_dropShadow_2_2" result="shape"/>
</filter>
</defs>
</svg>
