<svg width="153" height="160" viewBox="0 0 153 160" fill="none" xmlns="http://www.w3.org/2000/svg">
<g filter="url(#filter0_d_0_3)">
<path d="M121.944 79.1173C121.867 79.5156 120.651 80.7233 119.435 81.5873C115.859 84.1086 109.465 86.4565 102.964 87.5774C99.2618 88.2198 95.5565 88.329 94.4435 87.8022C93.7205 87.4553 93.6172 87.1791 93.8738 86.2798C94.4169 84.4105 96.1796 82.3613 98.9253 80.4406C100.321 79.4771 105.993 76.1464 108.635 74.7492C112.984 72.4527 116.506 71.0812 118.888 70.7568C119.641 70.6573 120.554 70.6316 120.831 70.7568C121.297 70.9303 121.83 72.2536 122.024 73.8499C122.115 75.6055 122.088 77.365 121.944 79.1173Z" fill="black"/>
<path d="M60.9356 87.3718C60.7823 87.6738 60.0059 88.0142 59.1229 88.1202C58.2399 88.2262 55.5508 88.1716 54.0214 87.9982C48.5333 87.298 42.6921 85.676 38.4603 83.6782C36.0778 82.554 34.3684 81.4299 33.0989 80.2094L32.3758 79.4867L32.2958 78.5232C32.1659 76.8755 32.1925 74.2803 32.3991 73.3585C32.5345 72.5873 32.8062 71.8442 33.2022 71.1616C33.4087 70.911 33.4087 70.911 34.3417 70.911C35.5922 70.926 36.8312 71.1431 38.0071 71.5534C41.1926 72.5009 45.9309 74.7974 51.7055 78.1442C56.4705 80.8903 58.2565 82.2361 59.6294 84.0829C60.549 85.2584 61.1688 86.8804 60.9356 87.3718Z" fill="black"/>
<path d="M97.6024 122.124C97.6024 122.198 97.2925 123.409 96.906 124.819C96.5195 126.229 96.2063 127.389 96.2063 127.44C95.9312 127.474 95.6533 127.483 95.3766 127.466H94.5469L93.4073 130.061C92.7875 131.484 92.2177 132.807 92.141 133.006L91.9844 133.356L91.4413 132.508L90.8982 131.657V124.745L90.6882 124.793C90.2484 124.893 87.1162 125.294 85.7433 125.42C80.0782 125.965 74.3653 125.847 68.7294 125.07C68.1646 124.975 67.5952 124.909 67.0234 124.87C66.9967 124.893 67.0234 126.492 67.0734 128.464L67.15 131.998L66.7102 132.64C66.4769 132.99 66.2437 133.282 66.2437 133.314C66.167 133.388 65.9104 132.993 65.314 131.843C64.6725 130.639 64.1847 129.364 63.8612 128.047L63.6812 127.324L62.8782 127.376L62.0752 127.45L61.8686 126.525C61.7653 126.027 61.6353 125.24 61.5853 124.829L61.5054 124.029L60.8389 123.457C60.4524 123.136 60.0625 122.815 59.9859 122.757C59.9254 122.703 59.8777 122.638 59.8461 122.564C59.8144 122.491 59.7996 122.412 59.8026 122.333V122.06L63.0415 122.083L66.277 122.108L66.3803 122.429L66.4836 122.751L67.5998 122.802C68.2196 122.824 70.1889 122.876 71.9483 122.927L75.1838 123.001L76.0035 121.739L76.8599 120.493H77.9461L77.9195 117.897L77.8928 115.299L76.47 114.702C71.8883 112.755 69.1926 110.526 68.183 107.838C67.9764 107.289 67.9764 107.09 67.9264 104.591C67.8764 102.092 67.8997 101.896 68.0797 101.347C68.255 100.735 68.5933 100.178 69.0609 99.7312C69.5285 99.2844 70.1092 98.9633 70.7454 98.7997C71.1852 98.6776 72.3481 98.6776 78.4593 98.6776L85.66 98.7001L86.4631 99.0759C87.2391 99.384 87.9115 99.8931 88.4057 100.547C89.0255 101.347 89.2088 101.97 89.2088 103.492C89.2088 105.667 89.0522 107.536 88.8189 108.288C88.4753 109.313 87.9683 110.281 87.3161 111.156C85.7704 112.928 83.7704 114.279 81.5149 115.074L80.8951 115.299L80.9217 117.92L80.9451 120.541L81.5149 120.592L82.0847 120.64L82.8644 121.765L83.6141 122.889H87.0829C88.9988 122.889 90.6816 122.914 90.8382 122.937C91.0981 122.988 91.1481 122.963 91.408 122.539L91.7179 122.089H94.6968C96.9293 121.999 97.6024 122.06 97.6024 122.124Z" fill="black"/>
<path d="M83.9307 129.287C83.4375 129.563 83.101 129.688 83.0243 129.637C82.9477 129.585 82.5845 129.316 82.1946 129.039L81.4982 128.484L80.7718 129.232C79.1924 130.88 79.139 130.954 78.6759 130.979C77.9495 131.053 77.7929 130.928 76.9132 129.656C76.4467 129.014 76.0835 128.458 76.0835 128.458C76.0835 128.458 75.7503 128.407 75.3604 128.381L74.634 128.307L74.3008 128.982L73.9676 129.656L73.3711 129.479C72.9043 129.331 72.447 129.156 72.0016 128.956L71.2219 128.583V127.167L78.1127 127.189L85.0003 127.215L85.0269 127.89C85.0436 128.689 85.0702 128.664 83.9307 129.287Z" fill="black"/>
<path d="M148.667 98.835C148.641 98.6529 148.624 98.4696 148.617 98.2858C142.403 97.6434 124.663 97.2387 108.195 110.343C108.195 110.343 102.887 86.8965 78.0261 86.8965C53.165 86.8965 43.9483 110.343 43.9483 110.343C30.0166 95.8897 11.3733 96.94 4.62905 97.8875C4.62905 98.0385 4.6024 98.2087 4.6024 98.3629C4.39581 101.979 4.4991 103.704 5.11888 105.975C7.06152 113.089 13.0427 120.926 22.416 128.612C37.7738 141.193 58.5931 150.279 74.3641 151.327C90.8049 152.399 115.069 143.14 131.227 129.611C133.761 127.454 136.153 125.147 138.388 122.702C139.994 120.904 142.386 117.808 142.193 117.808C142.143 117.808 142.193 117.759 142.3 117.708C142.406 117.657 142.453 117.583 142.403 117.534C142.353 117.486 142.426 117.435 142.506 117.409C142.586 117.384 142.636 117.335 142.61 117.284C142.583 117.233 142.61 117.184 142.713 117.159C142.729 117.155 142.743 117.148 142.756 117.138C142.769 117.128 142.779 117.116 142.786 117.102C142.794 117.088 142.798 117.072 142.798 117.057C142.799 117.041 142.796 117.025 142.79 117.011C142.763 116.96 142.79 116.911 142.843 116.911C142.896 116.911 142.946 116.834 142.946 116.786C142.946 116.738 142.996 116.661 143.049 116.661C143.076 116.659 143.101 116.647 143.12 116.629C143.139 116.611 143.15 116.587 143.153 116.561C143.238 116.357 143.35 116.164 143.486 115.986C143.876 115.411 145.429 112.742 145.635 112.293C147.111 109.081 148.044 106.19 148.484 103.332C148.644 101.957 148.771 99.4356 148.667 98.835ZM83.9306 129.287C83.4375 129.563 83.1009 129.688 83.0243 129.637C82.9477 129.585 82.5845 129.316 82.1946 129.039L81.4982 128.484L80.7718 129.232C79.1923 130.88 79.139 130.954 78.6759 130.979C77.9494 131.053 77.7929 130.928 76.9132 129.656C76.4467 129.014 76.0835 128.458 76.0835 128.458C76.0835 128.458 75.7502 128.407 75.3604 128.381L74.634 128.307L74.3008 128.982L73.9675 129.656L73.3711 129.479C72.9043 129.331 72.447 129.156 72.0016 128.956L71.2219 128.583V127.167L78.1127 127.189L85.0003 127.215L85.0269 127.89C85.0436 128.689 85.0702 128.664 83.9306 129.287ZM96.8793 124.79C96.4895 126.213 96.1796 127.36 96.1796 127.411C95.9045 127.445 95.6267 127.454 95.3499 127.437H94.5235L93.4073 130.058C92.7875 131.48 92.2177 132.804 92.141 133.003L91.9844 133.353L91.4413 132.505L90.8982 131.654V124.745L90.6882 124.793C90.2484 124.893 87.1162 125.294 85.7433 125.42C80.0782 125.965 74.3653 125.847 68.7294 125.07C68.1646 124.975 67.5952 124.909 67.0234 124.87C66.9967 124.893 67.0234 126.492 67.0734 128.464L67.15 131.998L66.7101 132.64C66.4769 132.99 66.2436 133.282 66.2436 133.314C66.167 133.388 65.9104 132.993 65.314 131.843C64.6725 130.639 64.1847 129.364 63.8612 128.047L63.6812 127.324L62.8782 127.376L62.0751 127.45L61.8686 126.525C61.7653 126.027 61.6353 125.24 61.5853 124.829L61.5053 124.029L60.8389 123.457C60.4524 123.136 60.0625 122.815 59.9859 122.757C59.9254 122.703 59.8777 122.638 59.8461 122.564C59.8144 122.491 59.7996 122.412 59.8026 122.333V122.06L63.0415 122.083L66.277 122.108L66.3803 122.429L66.4836 122.751L67.5998 122.802C68.2196 122.824 70.1889 122.876 71.9483 122.927L75.1838 123.001L76.0035 121.739L76.8598 120.493H77.9461L77.9195 117.897L77.8928 115.299L76.47 114.702C71.8883 112.755 69.1926 110.526 68.183 107.838C67.9764 107.289 67.9764 107.089 67.9264 104.591C67.8764 102.092 67.8997 101.896 68.0797 101.347C68.255 100.735 68.5933 100.178 69.0609 99.7312C69.5285 99.2844 70.1092 98.9633 70.7454 98.7997C71.1852 98.6776 72.3481 98.6776 78.4593 98.6776L85.66 98.7001L86.4631 99.0759C87.2391 99.3839 87.9115 99.8931 88.4057 100.547C89.0255 101.347 89.2088 101.97 89.2088 103.492C89.2088 105.667 89.0521 107.536 88.8189 108.288C88.4753 109.313 87.9683 110.281 87.3161 111.156C85.7704 112.928 83.7703 114.279 81.5148 115.074L80.8951 115.299L80.9217 117.92L80.945 120.541L81.5148 120.592L82.0846 120.64L82.8644 121.765L83.6141 122.889H87.0829C88.9988 122.889 90.6816 122.914 90.8382 122.937C91.0981 122.988 91.1481 122.963 91.408 122.539L91.7179 122.089H94.6968C97.0026 122.089 97.6757 122.115 97.6757 122.188C97.6024 122.172 97.2659 123.396 96.8793 124.793V124.79Z" fill="white"/>
<path d="M148.461 96.2912C148.411 95.167 148.304 93.5932 148.228 92.8192C147.115 81.4877 144.112 72.2279 138.414 62.4188C138.201 62.0824 138.01 61.7326 137.845 61.3718C137.805 61.307 137.77 61.2394 137.741 61.1694C138.544 58.8505 141.833 49.141 144.449 38.044C147.994 22.9675 150.247 5.34396 143.359 0.0540116C143.359 0.0540116 131.447 -0.797132 115.496 14.2794C111.167 18.4477 107.218 22.9662 103.69 27.7853L102.574 27.4352C96.1656 25.4122 89.5195 24.1713 82.7911 23.7415C80.7718 23.5906 73.2378 23.5906 70.7754 23.7415C63.3447 24.2137 57.6467 25.2864 51.1757 27.4609C50.9158 27.5604 50.6826 27.6343 50.4493 27.7082C46.7989 22.905 42.718 18.4201 38.2537 14.3051C21.653 -0.854947 9.30072 0.00904554 9.30072 0.00904554C2 5.46922 4.48578 23.8957 8.26776 39.4701C10.7535 49.7801 13.8091 58.8408 14.932 62.1105C14.8521 62.2839 14.7488 62.4831 14.6455 62.6597C8.61097 74.4409 5.3488 85.7852 4.57241 97.8779C11.33 96.9304 29.95 95.8576 43.8917 110.333C43.8917 110.333 53.1084 86.8868 77.9694 86.8868C102.831 86.8868 108.135 110.333 108.135 110.333C113.725 105.859 120.175 102.492 127.118 100.425C134.06 98.3591 141.357 97.6341 148.591 98.2922C148.564 97.7879 148.514 97.0396 148.461 96.2912ZM19.8403 52.7094C19.8403 52.7094 10.1571 29.3719 12.6429 16.0427C13.056 13.7944 13.8324 11.8255 15.052 10.3256C15.052 10.3256 26.048 11.3758 43.7417 30.3451C43.7417 30.3451 40.3762 31.9189 35.8712 35.2625C35.8568 35.2765 35.8381 35.2855 35.8179 35.2882C29.365 40.036 23.9373 45.9541 19.8403 52.7094ZM60.9356 87.3718C60.7823 87.6738 60.0059 88.0142 59.1229 88.1202C58.2399 88.2262 55.5508 88.1716 54.0214 87.9982C48.5333 87.298 42.6921 85.676 38.4603 83.6782C36.0778 82.554 34.3684 81.4299 33.0989 80.2094L32.3758 79.4867L32.2958 78.5231C32.1659 76.8755 32.1925 74.2803 32.3991 73.3585C32.5345 72.5873 32.8062 71.8442 33.2022 71.1615C33.4087 70.911 33.4087 70.911 34.3417 70.911C35.5922 70.926 36.8312 71.1431 38.0071 71.5534C41.1926 72.5009 45.9309 74.7974 51.7055 78.1441C56.4705 80.8903 58.2565 82.2361 59.6294 84.0829C60.549 85.2584 61.1688 86.8804 60.9356 87.3718ZM121.944 79.1173C121.867 79.5156 120.651 80.7233 119.435 81.5873C115.859 84.1086 109.465 86.4565 102.964 87.5774C99.2618 88.2198 95.5565 88.329 94.4435 87.8022C93.7205 87.4554 93.6172 87.1791 93.8738 86.2798C94.4169 84.4105 96.1796 82.3613 98.9253 80.4406C100.321 79.4771 105.993 76.1464 108.635 74.7492C112.984 72.4527 116.506 71.0813 118.888 70.7569C119.641 70.6573 120.554 70.6316 120.831 70.7569C121.297 70.9303 121.83 72.2536 122.024 73.8499C122.115 75.6055 122.088 77.365 121.944 79.1173ZM117.655 35.2625L117.605 35.2368C113.243 31.8933 109.991 30.3194 109.991 30.3194C127.109 11.3501 137.698 10.3031 137.698 10.3031C138.864 11.8255 139.614 13.7719 140.031 16.017C142.436 29.3462 133.09 52.7094 133.09 52.7094C129.169 45.983 123.926 40.0571 117.655 35.2625Z" fill="#D97C3A"/>
<path d="M140.044 16.017C138.025 15.7697 128.471 15.7183 117.645 35.2625L117.595 35.2368C113.243 31.8933 109.991 30.3194 109.991 30.3194C127.109 11.3502 137.698 10.3031 137.698 10.3031C138.881 11.8255 139.647 13.7719 140.044 16.017Z" fill="#D2A679"/>
<path d="M133.106 52.7094C129.186 45.9782 123.937 40.0513 117.655 35.2625C128.481 15.7183 138.011 15.7697 140.054 16.017C142.453 29.3719 133.106 52.7094 133.106 52.7094Z" fill="#D2A679"/>
<path d="M43.7417 30.3194C43.7417 30.3194 40.3763 31.8933 35.8712 35.2368C35.8568 35.2508 35.8381 35.2598 35.8179 35.2625C24.6052 15.6926 14.7388 15.7697 12.6162 16.017C13.0294 13.7687 13.8091 11.7998 15.0253 10.3031C15.052 10.3031 26.0214 11.3502 43.7417 30.3194Z" fill="#D2A679"/>
<path d="M35.8445 35.2625C30.923 38.908 24.6586 44.6219 19.8503 52.7094C19.8503 52.7094 10.1671 29.3719 12.6529 16.017C14.7388 15.7697 24.6319 15.7183 35.8445 35.2625Z" fill="#D2A679"/>
<path d="M106.899 65.6628C106.899 65.6628 98.6121 66.1735 99.6617 59.9232C100.711 53.6729 107.172 52.9342 108.992 53.1783C110.811 53.4224 118.055 55.9244 116.759 61.163C115.463 66.4016 113.653 65.4091 112.617 65.6596C111.581 65.9101 106.899 65.6628 106.899 65.6628Z" fill="white"/>
<path d="M45.7876 65.6628C45.7876 65.6628 37.5006 66.1639 38.5369 59.9232C39.5732 53.6826 46.0476 52.9342 47.8669 53.1783C49.6862 53.4224 56.9303 55.9244 55.6341 61.163C54.3379 66.4016 52.5286 65.4091 51.4923 65.6596C50.456 65.9101 45.7876 65.6628 45.7876 65.6628Z" fill="white"/>
</g>
<defs>
<filter id="filter0_d_0_3" x="0.505704" y="1.03506e-08" width="152.199" height="159.411" filterUnits="userSpaceOnUse" color-interpolation-filters="sRGB">
<feFlood flood-opacity="0" result="BackgroundImageFix"/>
<feColorMatrix in="SourceAlpha" type="matrix" values="0 0 0 0 0 0 0 0 0 0 0 0 0 0 0 0 0 0 127 0" result="hardAlpha"/>
<feOffset dy="4"/>
<feGaussianBlur stdDeviation="2"/>
<feComposite in2="hardAlpha" operator="out"/>
<feColorMatrix type="matrix" values="0 0 0 0 0.823529 0 0 0 0 0.65098 0 0 0 0 0.47451 0 0 0 0.05 0"/>
<feBlend mode="normal" in2="BackgroundImageFix" result="effect1_dropShadow_0_3"/>
<feBlend mode="normal" in="SourceGraphic" in2="effect1_dropShadow_0_3" result="shape"/>
</filter>
</defs>
</svg>
